<svg width="30" height="30" viewBox="0 0 30 30" fill="none" xmlns="http://www.w3.org/2000/svg">
<path d="M25.4 8.2C25.32 8.1 25.2 8.04 25.08 8.04H8.54L8.1 5.8C8.06 5.62 7.9 5.48 7.7 5.48H4.9C4.68 5.48 4.5 5.66 4.5 5.88C4.5 6.1 4.68 6.28 4.9 6.28H7.36L9.48 17.22C9.52 17.32 10.26 19.42 12.12 19.42H22.32C22.54 19.42 22.72 19.24 22.72 19.02C22.72 18.8 22.54 18.62 22.32 18.62H12.12C11.38 18.62 10.88 18.08 10.58 17.62L23.4 15.82C23.56 15.8 23.7 15.68 23.74 15.52L25.46 8.54C25.5 8.42 25.48 8.3 25.4 8.2ZM23.04 15.08L10.24 16.88L8.7 8.86H24.58L23.04 15.08Z" fill="#010202"/>
<path d="M12.12 20.3C10.96 20.3 10 21.24 10 22.42C10 23.6 10.94 24.54 12.12 24.54C13.3 24.54 14.24 23.6 14.24 22.42C14.24 21.24 13.28 20.3 12.12 20.3ZM12.12 23.72C11.4 23.72 10.8 23.14 10.8 22.4C10.8 21.66 11.38 21.08 12.12 21.08C12.84 21.08 13.44 21.66 13.44 22.4C13.44 23.14 12.84 23.72 12.12 23.72Z" fill="#010202"/>
<path d="M20.7999 20.3C19.6399 20.3 18.6799 21.24 18.6799 22.42C18.6799 23.6 19.6199 24.54 20.7999 24.54C21.9799 24.54 22.9199 23.6 22.9199 22.42C22.9199 21.24 21.9599 20.3 20.7999 20.3ZM20.7999 23.72C20.0799 23.72 19.4799 23.14 19.4799 22.4C19.4799 21.66 20.0599 21.08 20.7999 21.08C21.5199 21.08 22.1199 21.66 22.1199 22.4C22.1199 23.14 21.5199 23.72 20.7999 23.72Z" fill="#010202"/>
</svg>
