<svg width="38" height="38" viewBox="0 0 38 38" fill="none" xmlns="http://www.w3.org/2000/svg">
<path d="M32.3 0H5.7C2.55198 0 0 2.55198 0 5.7V32.3C0 35.448 2.55198 38 5.7 38H32.3C35.448 38 38 35.448 38 32.3V5.7C38 2.55198 35.448 0 32.3 0Z" fill="url(#paint0_linear)"/>
<g filter="url(#filter0_d)">
<path d="M31.0776 18.9471C31.0776 19.4006 30.8975 19.8355 30.5768 20.1562C30.2561 20.4769 29.8212 20.6571 29.3676 20.6571H28.4873C28.2627 20.6571 28.0403 20.6128 27.8329 20.5269C27.6254 20.441 27.4369 20.315 27.2781 20.1562C26.9574 19.8355 26.7773 19.4006 26.7773 18.9471C26.7773 18.7226 26.8215 18.5003 26.9074 18.2929C26.9934 18.0856 27.1194 17.8971 27.2782 17.7385C27.437 17.5798 27.6255 17.454 27.833 17.3682C28.0404 17.2825 28.2628 17.2384 28.4873 17.2386H29.3676C29.5921 17.2384 29.8145 17.2825 30.0219 17.3682C30.2294 17.454 30.4179 17.5798 30.5767 17.7385C30.7355 17.8971 30.8615 18.0856 30.9475 18.2929C31.0334 18.5003 31.0776 18.7226 31.0776 18.9471Z" fill="white"/>
</g>
<g filter="url(#filter1_d)">
<path d="M25.66 17.562C25.1988 17.166 24.298 17.2375 24.298 17.2375H10.815L10.2874 17.8417C9.99489 18.1796 9.84788 18.6194 9.87849 19.0653C9.9091 19.5111 10.1149 19.9268 10.4508 20.2215C10.8328 20.5534 11.1322 20.6543 11.7509 20.6543H20.636L12.4679 30.0051C12.1715 30.3472 12.0223 30.7925 12.0529 31.2441C12.0835 31.6957 12.2914 32.1169 12.6313 32.4159C12.9734 32.7128 13.4192 32.8623 13.8712 32.8316C14.3232 32.801 14.7447 32.5928 15.0437 32.2525L25.6601 20.05C25.8183 19.8918 26.8835 18.6124 25.66 17.562Z" fill="white"/>
</g>
<g filter="url(#filter2_d)">
<path d="M23.2686 8.08556C24.141 7.21323 23.9691 6.20391 23.2686 5.59029C22.5344 4.95189 21.3082 5.13877 20.6946 5.83824L11.5121 16.4546H16.0414L23.2686 8.08556Z" fill="white"/>
</g>
<defs>
<filter id="filter0_d" x="16.7773" y="10.2386" width="24.3004" height="23.4184" filterUnits="userSpaceOnUse" color-interpolation-filters="sRGB">
<feFlood flood-opacity="0" result="BackgroundImageFix"/>
<feColorMatrix in="SourceAlpha" type="matrix" values="0 0 0 0 0 0 0 0 0 0 0 0 0 0 0 0 0 0 127 0"/>
<feOffset dy="3"/>
<feGaussianBlur stdDeviation="5"/>
<feColorMatrix type="matrix" values="0 0 0 0 0 0 0 0 0 0 0 0 0 0 0 0 0 0 0.161 0"/>
<feBlend mode="normal" in2="BackgroundImageFix" result="effect1_dropShadow"/>
<feBlend mode="normal" in="SourceGraphic" in2="effect1_dropShadow" result="shape"/>
</filter>
<filter id="filter1_d" x="-0.125488" y="10.2325" width="36.3662" height="35.6031" filterUnits="userSpaceOnUse" color-interpolation-filters="sRGB">
<feFlood flood-opacity="0" result="BackgroundImageFix"/>
<feColorMatrix in="SourceAlpha" type="matrix" values="0 0 0 0 0 0 0 0 0 0 0 0 0 0 0 0 0 0 127 0"/>
<feOffset dy="3"/>
<feGaussianBlur stdDeviation="5"/>
<feColorMatrix type="matrix" values="0 0 0 0 0 0 0 0 0 0 0 0 0 0 0 0 0 0 0.161 0"/>
<feBlend mode="normal" in2="BackgroundImageFix" result="effect1_dropShadow"/>
<feBlend mode="normal" in="SourceGraphic" in2="effect1_dropShadow" result="shape"/>
</filter>
<filter id="filter2_d" x="1.51215" y="-1.80052" width="32.348" height="31.2552" filterUnits="userSpaceOnUse" color-interpolation-filters="sRGB">
<feFlood flood-opacity="0" result="BackgroundImageFix"/>
<feColorMatrix in="SourceAlpha" type="matrix" values="0 0 0 0 0 0 0 0 0 0 0 0 0 0 0 0 0 0 127 0"/>
<feOffset dy="3"/>
<feGaussianBlur stdDeviation="5"/>
<feColorMatrix type="matrix" values="0 0 0 0 0 0 0 0 0 0 0 0 0 0 0 0 0 0 0.161 0"/>
<feBlend mode="normal" in2="BackgroundImageFix" result="effect1_dropShadow"/>
<feBlend mode="normal" in="SourceGraphic" in2="effect1_dropShadow" result="shape"/>
</filter>
<linearGradient id="paint0_linear" x1="19" y1="0" x2="19" y2="38" gradientUnits="userSpaceOnUse">
<stop stop-color="#ED4E08"/>
<stop offset="1" stop-color="#ED4E08"/>
</linearGradient>
</defs>
</svg>
