<svg width="30" height="30" viewBox="0 0 30 30" fill="none" xmlns="http://www.w3.org/2000/svg">
<path d="M25.16 24.58L19.58 18.9C20.94 17.38 21.76 15.4 21.76 13.22C21.76 8.52001 17.9399 4.68001 13.22 4.68001C8.49995 4.68001 4.69995 8.52001 4.69995 13.22C4.69995 17.92 8.51995 21.76 13.24 21.76C15.46 21.76 17.46 20.9 18.98 19.52L24.5599 25.18C24.6399 25.26 24.76 25.3 24.86 25.3C24.96 25.3 25.08 25.26 25.16 25.18C25.34 25.02 25.34 24.74 25.16 24.58ZM13.24 20.9C9.01995 20.9 5.57995 17.46 5.57995 13.24C5.57995 9.00001 8.99995 5.56001 13.24 5.56001C17.4799 5.56001 20.9 9.00001 20.9 13.22C20.9 17.46 17.4599 20.9 13.24 20.9Z" fill="#010202"/>
</svg>
