<svg width="29" height="30" viewBox="0 0 29 30" fill="none" xmlns="http://www.w3.org/2000/svg">
<path d="M22.04 22.58C22.04 22.38 21.9433 17.82 19.2946 15.16C18.4053 14.26 17.3226 13.7 16.066 13.48C17.69 12.84 18.8306 11.22 18.8306 9.33999C18.8306 6.89999 16.9166 4.89999 14.5386 4.89999C12.1606 4.89999 10.2466 6.87999 10.2466 9.33999C10.2466 11.26 11.426 12.9 13.0886 13.5C7.23063 14.72 6.95996 22.5 6.95996 22.58V22.82L7.15329 22.94C7.28863 23.02 10.672 25.1 14.5386 25.1C18.4053 25.1 21.692 23.04 21.8466 22.94L22.04 22.82V22.58ZM11.0393 9.33999C11.0393 7.33999 12.6053 5.71999 14.5386 5.71999C16.472 5.71999 18.038 7.33999 18.038 9.33999C18.038 11.34 16.472 12.96 14.5386 12.96C12.6246 12.96 11.0393 11.34 11.0393 9.33999ZM14.558 24.28C11.426 24.28 8.54529 22.8 7.77196 22.36C7.81063 21.74 8.00396 20.06 8.69996 18.38C9.85996 15.62 11.832 14.2 14.558 14.16C16.24 14.12 17.6513 14.66 18.734 15.76C20.822 17.86 21.17 21.42 21.228 22.38C20.4933 22.8 17.6706 24.28 14.558 24.28Z" fill="#010202"/>
</svg>
